<?xml version="1.0" encoding="UTF-8"?>
<svg version="1.1" xmlns="http://www.w3.org/2000/svg" width="184" height="181">
<path d="M0 0 C1.06798828 -0.01160156 2.13597656 -0.02320313 3.23632812 -0.03515625 C10.22156537 -0.00955367 15.99512405 1.07860777 22.5625 3.375 C23.99358407 3.79893061 25.42711575 4.21471038 26.86328125 4.62109375 C28.2006533 5.01778285 29.53789509 5.4149114 30.875 5.8125 C31.55111328 6.00392578 32.22722656 6.19535156 32.92382812 6.39257812 C37.2564073 7.69869224 40.19701167 9.37545603 43.5625 12.375 C44.92375 13.2721875 44.92375 13.2721875 46.3125 14.1875 C47.385 14.909375 48.4575 15.63125 49.5625 16.375 C50.36042969 16.86742188 51.15835938 17.35984375 51.98046875 17.8671875 C58.1937335 22.04789588 58.1937335 22.04789588 59.1953125 25.65234375 C59.09206115 29.09979151 58.56000736 31.41566257 56.03125 33.84765625 C53.93591248 35.18300455 51.78899997 36.27270002 49.5625 37.375 C47.86759673 38.38349385 46.18020932 39.40471078 44.5 40.4375 C42.85540714 41.41874871 41.20967511 42.39809219 39.5625 43.375 C38.65177734 43.91640625 38.65177734 43.91640625 37.72265625 44.46875 C33.54809798 46.90472753 29.25089175 49.03648113 24.89453125 51.12890625 C22.52170049 52.31320343 22.52170049 52.31320343 20.46875 53.99609375 C18.04971242 55.74593036 16.08337741 55.90580878 13.13671875 55.796875 C9.15222303 55.14387722 5.43407873 53.78830533 1.63574219 52.44213867 C-4.45050514 50.29781204 -10.60306253 48.75475106 -16.87890625 47.26953125 C-20.4375 46.375 -20.4375 46.375 -23.67578125 45.24609375 C-27.98542826 43.88675672 -31.58487652 44.78996101 -35.8125 46.125 C-37.61098862 47.29257391 -37.61098862 47.29257391 -38.3125 49.5 C-38.72670946 59.02681758 -33.18868939 66.54776755 -28.4375 74.375 C-27.75977539 75.49648437 -27.75977539 75.49648437 -27.06835938 76.640625 C-21.64858749 85.60109713 -21.64858749 85.60109713 -16.09912109 94.48144531 C-13.63823992 98.35813813 -11.43566003 102.23274691 -9.4375 106.375 C-3.21676311 121.10291343 -3.21676311 121.10291343 6.5625 132.375 C10.41753533 132.88900471 12.01803975 132.77686352 15.1875 130.4375 C18.12190971 126.6536559 19.82469399 122.80678477 21.5625 118.375 C21.91054687 117.61960937 22.25859375 116.86421875 22.6171875 116.0859375 C24.05107757 111.97387258 24.29851164 107.74394407 24.68554688 103.43359375 C25.19546195 98.61007281 26.43442923 94.79283319 28.5625 90.375 C29.18318359 89.05822266 29.18318359 89.05822266 29.81640625 87.71484375 C33.74570065 80.50136298 38.76504352 76.18338092 46.69140625 73.7109375 C47.30886719 73.55882813 47.92632812 73.40671875 48.5625 73.25 C49.5525 72.96125 50.5425 72.6725 51.5625 72.375 C51.98982422 71.45267578 51.98982422 71.45267578 52.42578125 70.51171875 C55.49745003 64.73782588 65.55561006 61.61286096 71.5625 59.375 C73.55071313 58.97735737 75.54982362 58.62044834 77.5625 58.375 C81.07971838 62.93015759 82.06743505 65.66169302 82.05859375 71.57421875 C82.06004898 72.24991409 82.06150421 72.92560944 82.06300354 73.6217804 C82.06135157 75.04631882 82.04986909 76.47087639 82.02905273 77.89526367 C82.00030562 80.03970154 82.0084154 82.18162717 82.02148438 84.32617188 C82.00935642 92.40555547 81.2019789 99.68406315 78.5625 107.375 C78.34795166 108.06537354 78.13340332 108.75574707 77.91235352 109.46704102 C77.35115988 111.26005585 76.73964028 113.03709644 76.125 114.8125 C75.73441406 115.96621094 75.34382812 117.11992188 74.94140625 118.30859375 C73.52392706 121.46077834 72.07913332 123.06597627 69.5625 125.375 C69.02625 126.385625 68.49 127.39625 67.9375 128.4375 C62.74290862 137.87298824 54.48058729 144.66341601 45.5625 150.375 C44.81097656 150.92027344 44.05945313 151.46554688 43.28515625 152.02734375 C37.92096322 155.8831521 32.90954705 157.72946928 26.5625 159.375 C25.91313477 159.61476562 25.26376953 159.85453125 24.59472656 160.1015625 C16.57025941 162.91905706 8.58957922 163.0180349 0.1875 163 C-0.94267044 162.99919937 -0.94267044 162.99919937 -2.09567261 162.99838257 C-26.00036995 162.86044341 -41.95395606 154.48697682 -59.125 138.0625 C-62.56016013 134.39781915 -65.61183348 130.525437 -68.4375 126.375 C-68.96472656 125.61445313 -69.49195313 124.85390625 -70.03515625 124.0703125 C-73.57273377 118.62922275 -75.41213894 113.59840986 -76.78515625 107.26953125 C-77.54240268 103.9095336 -78.61041461 100.73958897 -79.7890625 97.5078125 C-85.07993114 80.10531685 -79.92849044 58.88057791 -71.734375 43.09375 C-70.0699336 40.42464577 -68.32245771 37.89238361 -66.4375 35.375 C-65.83550781 34.55386719 -65.23351562 33.73273437 -64.61328125 32.88671875 C-53.71602814 18.44372168 -38.7882641 8.42451724 -21.4375 3.375 C-20.80255615 3.12492188 -20.1676123 2.87484375 -19.51342773 2.6171875 C-12.97891522 0.12137188 -6.94649466 -0.07518755 0 0 Z " fill="#FCFCFC" transform="translate(91.4375,8.625)"/>
</svg>
